<?xml version="1.0" standalone="no"?>
<!DOCTYPE svg PUBLIC "-//W3C//DTD SVG 20010904//EN"
 "http://www.w3.org/TR/2001/REC-SVG-20010904/DTD/svg10.dtd">
<svg version="1.0" xmlns="http://www.w3.org/2000/svg"
 width="600.000000pt" height="400.000000pt" viewBox="0 0 600.000000 400.000000"
 preserveAspectRatio="xMidYMid meet">

<g transform="translate(0.000000,400.000000) scale(0.100000,-0.100000)"
fill="#000000" stroke="none">
<path d="M2090 3250 c0 -4 9 -19 21 -34 29 -37 105 -38 138 -2 13 14 21 28 18
33 -8 13 -68 7 -78 -8 -6 -10 -11 -11 -16 -3 -9 13 -83 26 -83 14z"/>
<path d="M2023 3170 c-40 -16 -56 -84 -33 -144 11 -31 24 -34 165 -44 88 -5
110 -10 110 -22 0 -12 -23 -15 -137 -18 l-138 -3 -6 -25 c-11 -45 5 -49 175
-49 193 0 201 4 201 95 0 89 -7 93 -152 101 -67 4 -124 7 -125 8 -2 0 -3 8 -3
16 0 22 42 28 149 23 53 -3 102 -3 109 -1 6 3 12 20 12 39 l0 34 -152 -1 c-84
0 -163 -4 -175 -9z"/>
<path d="M2409 3170 c-1 -5 -1 -17 -1 -25 0 -8 0 -73 1 -145 l1 -130 45 0 c29
0 45 4 46 13 0 6 2 24 3 39 1 15 10 34 21 42 18 13 24 10 77 -40 l57 -54 65 0
c36 0 66 2 66 5 0 3 -36 39 -80 81 -44 42 -80 80 -80 84 0 4 34 34 75 66 41
32 75 62 75 66 0 5 -26 8 -59 8 -56 0 -61 -2 -134 -60 -41 -33 -77 -60 -79
-60 -3 0 -4 21 -3 48 0 26 -1 53 -3 60 -5 14 -91 17 -93 2z"/>
<path d="M2843 3168 c-32 -16 -44 -56 -45 -151 0 -131 16 -147 153 -155 110
-6 192 4 221 28 21 16 23 29 26 115 4 108 -6 146 -44 164 -32 14 -281 14 -311
-1z m238 -79 c14 -14 18 -31 15 -75 -2 -34 -9 -60 -17 -65 -18 -11 -140 -11
-157 -1 -31 20 -26 147 6 155 9 3 44 5 76 4 43 0 64 -5 77 -18z"/>
<path d="M3250 3025 l0 -155 149 0 c163 0 207 9 222 47 5 13 10 62 10 108 3
141 -19 155 -243 155 l-138 0 0 -155z m268 63 c13 -13 16 -106 4 -124 -4 -7
-42 -13 -87 -15 l-80 -4 -3 78 -3 77 79 0 c47 0 83 -5 90 -12z"/>
<path d="M3715 3030 c-41 -82 -75 -152 -75 -155 0 -3 22 -5 48 -5 38 0 53 5
69 23 19 22 27 24 107 21 76 -2 90 -5 102 -23 12 -17 26 -21 65 -21 27 0 49 2
49 5 0 3 -34 73 -75 155 l-75 150 -70 0 -70 0 -75 -150z m177 10 l28 -50 -60
0 -60 0 26 50 c14 28 29 50 33 50 3 0 18 -23 33 -50z"/>
<path d="M2920 2573 c-362 -36 -665 -276 -779 -618 -151 -455 73 -944 519
-1128 100 -41 175 -58 295 -64 259 -13 485 72 673 251 95 91 159 182 207 293
250 580 -161 1240 -786 1265 -52 3 -110 3 -129 1z m292 -57 c322 -82 554 -318
644 -656 26 -97 23 -300 -5 -405 -83 -309 -306 -538 -618 -631 -77 -23 -106
-27 -228 -27 -160 0 -247 18 -374 78 -442 210 -631 745 -415 1178 120 239 345
416 599 470 113 25 285 21 397 -7z"/>
<path d="M2840 2476 c-271 -58 -503 -250 -603 -499 -60 -149 -73 -370 -33
-522 76 -282 309 -512 593 -586 99 -25 287 -28 385 -5 291 68 530 293 612 577
18 65 34 197 30 249 -11 119 -17 159 -36 218 -83 270 -289 472 -565 553 -89
27 -291 34 -383 15z m365 -97 c328 -101 535 -380 535 -718 0 -317 -207 -596
-520 -701 -100 -34 -279 -39 -390 -11 -348 86 -589 408 -567 756 7 109 27 187
71 280 105 221 303 369 554 415 77 14 239 4 317 -21z"/>
<path d="M2903 2329 c-72 -11 -113 -24 -113 -38 0 -5 30 -38 66 -72 69 -67
140 -156 131 -165 -9 -9 -43 13 -99 63 -63 56 -180 133 -202 133 -36 0 -196
-126 -196 -154 0 -6 39 -37 88 -69 161 -107 203 -157 85 -102 -79 37 -191 75
-220 75 -19 0 -29 -12 -52 -59 -34 -73 -58 -178 -44 -192 6 -6 38 -17 71 -24
150 -35 260 -112 312 -219 38 -76 50 -143 28 -151 -8 -3 -46 9 -84 27 -67 32
-72 33 -181 30 -105 -3 -113 -5 -113 -23 0 -11 23 -50 51 -87 28 -36 56 -77
62 -89 5 -12 17 -25 26 -27 35 -11 101 2 144 27 l46 27 315 0 316 0 0 -29 c0
-40 16 -43 92 -18 72 25 151 81 146 105 -5 27 -86 81 -151 101 -73 22 -87 19
-87 -20 0 -22 -5 -29 -19 -29 -29 0 -29 15 -3 119 36 143 42 338 13 451 -29
116 -86 232 -154 312 -93 109 -120 119 -274 97z m277 -777 c27 -33 25 -68 -5
-97 -59 -60 -159 6 -123 82 26 55 91 62 128 15z"/>
</g>
</svg>
